<?xml version="1.0" encoding="UTF-8" standalone="no"?>
<svg
   width="64"
   height="64"
   version="1"
   id="svg12286"
   sodipodi:docname="folder-yellow-disturbiografia-v3.svg"
   inkscape:version="1.2 (1:1.2+202206011327+fc4e4096c5)"
   xml:space="preserve"
   xmlns:inkscape="http://www.inkscape.org/namespaces/inkscape"
   xmlns:sodipodi="http://sodipodi.sourceforge.net/DTD/sodipodi-0.dtd"
   xmlns="http://www.w3.org/2000/svg"
   xmlns:svg="http://www.w3.org/2000/svg"><defs
     id="defs12290"><inkscape:perspective
       sodipodi:type="inkscape:persp3d"
       inkscape:vp_x="0 : 32 : 1"
       inkscape:vp_y="0 : 1000 : 0"
       inkscape:vp_z="64 : 32 : 1"
       inkscape:persp3d-origin="32 : 21.333333 : 1"
       id="perspective853" /><inkscape:perspective
       sodipodi:type="inkscape:persp3d"
       inkscape:vp_x="0 : 32 : 1"
       inkscape:vp_y="0 : 1000 : 0"
       inkscape:vp_z="64 : 32 : 1"
       inkscape:persp3d-origin="32 : 21.333333 : 1"
       id="perspective853-7" /><inkscape:perspective
       sodipodi:type="inkscape:persp3d"
       inkscape:vp_x="0 : 32 : 1"
       inkscape:vp_y="0 : 1000 : 0"
       inkscape:vp_z="64 : 32 : 1"
       inkscape:persp3d-origin="32 : 21.333333 : 1"
       id="perspective853-6" /></defs><sodipodi:namedview
     id="namedview12288"
     pagecolor="#ffffff"
     bordercolor="#666666"
     borderopacity="1.0"
     inkscape:showpageshadow="2"
     inkscape:pageopacity="0.0"
     inkscape:pagecheckerboard="0"
     inkscape:deskcolor="#d1d1d1"
     showgrid="false"
     inkscape:zoom="4.1542523"
     inkscape:cx="-10.35084"
     inkscape:cy="52.235634"
     inkscape:window-width="1920"
     inkscape:window-height="998"
     inkscape:window-x="0"
     inkscape:window-y="27"
     inkscape:window-maximized="1"
     inkscape:current-layer="svg12286" /><rect
     style="opacity:0.2"
     width="56"
     height="36"
     x="4"
     y="22"
     rx="2.8"
     ry="2.8"
     id="rect12266" /><path
     style="fill:#e0a316;fill-opacity:1"
     d="M 4,46.2 C 4,47.751 5.2488,49 6.8,49 H 57.2 C 58.751,49 60,47.751 60,46.2 V 15.8 C 60,14.249 58.751,13 57.2,13 H 32 C 27.8,13 26.4,7 22.2,7 H 6.8 C 5.2488,7 4,8.2488 4,9.8"
     id="path12268" /><rect
     style="opacity:0.2"
     width="56"
     height="36"
     x="4"
     y="20"
     rx="2.8"
     ry="2.8"
     id="rect12270" /><rect
     style="fill:#e4e4e4"
     width="48"
     height="22"
     x="12.247948"
     y="9.9543839"
     rx="2.8"
     ry="2.8"
     id="rect12272"
     transform="rotate(10.124449)" /><rect
     style="fill:#5f8dd3;fill-opacity:1;stroke-width:0.928876"
     width="44.58604"
     height="20.435268"
     x="13.879817"
     y="11.684066"
     rx="1.7458915"
     ry="1.7458915"
     id="rect2374"
     transform="rotate(9.6887429)" /><circle
     style="fill:#dbe2e3;fill-opacity:1;stroke-width:1.3653;stroke-linecap:square;paint-order:stroke fill markers"
     id="path2433"
     cx="18.39027"
     cy="22"
     r="5.1989999" /><rect
     style="fill:#f7c631;fill-opacity:1"
     width="56"
     height="36"
     x="4"
     y="21"
     rx="2.8"
     ry="2.8"
     id="rect12274" /><path
     style="opacity:0.1;fill:#ffffff"
     d="M 6.8008,7 C 5.2496,7 4,8.2496 4,9.8008 V 10.801 C 4,9.2496 5.2496,8 6.8008,8 H 22.199 C 26.399,8 27.8,14 32,14 H 57.199 C 58.75,14 60,15.25 60,16.801 V 15.801 C 60,14.25 58.75,13 57.199,13 H 32 C 27.8,13 26.399,7 22.199,7 Z"
     id="path12276" /><g
     id="g2379"
     transform="translate(2.9388428e-5,-2.7683258e-5)"
     style="fill:#542c07;fill-opacity:1"><text
       xml:space="preserve"
       style="font-style:normal;font-variant:normal;font-weight:normal;font-stretch:normal;font-size:31.8451px;line-height:1.25;font-family:Cocogoose;-inkscape-font-specification:Cocogoose;fill:#542c07;fill-opacity:1;stroke:none;stroke-width:1.07158;stroke-linecap:square;stroke-linejoin:miter;stroke-dasharray:none;paint-order:stroke fill markers"
       x="19.325621"
       y="50.830482"
       id="text13172"><tspan
         sodipodi:role="line"
         id="tspan13170"
         x="19.325621"
         y="50.830482"
         style="font-style:normal;font-variant:normal;font-weight:normal;font-stretch:normal;font-family:Cocogoose;-inkscape-font-specification:Cocogoose;fill:#542c07;fill-opacity:1;stroke:none;stroke-width:1.07158;stroke-linecap:square;stroke-linejoin:miter;stroke-dasharray:none;paint-order:stroke fill markers">D</tspan></text><rect
       style="fill:#542c07;fill-opacity:1;stroke:none;stroke-width:1;stroke-linecap:square;stroke-linejoin:miter;stroke-dasharray:none;paint-order:stroke fill markers"
       id="rect13920"
       width="2.5862648"
       height="2.5862648"
       x="39.779285"
       y="48.244217"
       ry="0.65197885" /></g></svg>
